# xmcd
#
# Track frame offsets:
#	150
#	19210
#	34371
#	54268
#	71973
#	88852
#	104721
#	125261
#	142598
#	163062
#	180177
#	194059
#
# Disc length: 2808 seconds
#
# Revision: 0
# Processed by: cddbd v1.5.2PL0 Copyright (c) Steve Scherf et al.
# Submitted via: audiograbber 1.83.01
#
DISCID=a90af60c
DTITLE=Take That - Beautiful World
DYEAR=2006
DGENRE=Pop
TTITLE0=Reach Out
TTITLE1=Patience
TTITLE2=Beautiful World
TTITLE3=Hold On
TTITLE4=Like I Never Loved You At All
TTITLE5=Shine
TTITLE6=I'd Wait For Life
TTITLE7=Aint No Sense In Love
TTITLE8=What You Believe In
TTITLE9=Mancunian Way
TTITLE10=Wooden Boat
TTITLE11=Butterfly
EXTD=
EXTT0=
EXTT1=
EXTT2=
EXTT3=
EXTT4=
EXTT5=
EXTT6=
EXTT7=
EXTT8=
EXTT9=
EXTT10=
EXTT11=
PLAYORDER=
